# xmcd
#
# Track frame offsets:
#	150
#	19222
#	37003
#	57430
#	77526
#	95011
#	111354
#	132156
#	154166
#	171734
#	189022
#	203373
#	233585
#	250846
#	275591
#
# Disc length: 4006 seconds
#
# Revision: 2
# Processed by: cddbd v1.4PL0 Copyright (c) Steve Scherf et al.
# Submitted via: audiograbber 1.81.02
#
DISCID=c80fa40f
DTITLE=Dido - No Angel
DYEAR=1900
DGENRE=Rock
TTITLE0=There with me
TTITLE1=Hunter
TTITLE2=Don't Think of Me
TTITLE3=My Lovers All Gone
TTITLE4=All You Want
TTITLE5=Thank You
TTITLE6=Honestly OK
TTITLE7=Slide
TTITLE8=Isobel
TTITLE9=I'm No Angel
TTITLE10=My Life
TTITLE11=Take My Hand
TTITLE12=Here With Me(unplugged)
TTITLE13=Here With Me(Rollo Orchestra Remix)
TTITLE14=Stan(Eminem feat. DIDO)
EXTD=
EXTT0=
EXTT1=
EXTT2=
EXTT3=
EXTT4=
EXTT5=
EXTT6=
EXTT7=
EXTT8=
EXTT9=
EXTT10=
EXTT11=
EXTT12=
EXTT13=
EXTT14=
PLAYORDER=
